<?xml version="1.0" standalone="no"?>
<!DOCTYPE svg PUBLIC "-//W3C//DTD SVG 20010904//EN"
 "http://www.w3.org/TR/2001/REC-SVG-20010904/DTD/svg10.dtd">
<svg version="1.0" xmlns="http://www.w3.org/2000/svg"
 width="500.000000pt" height="500.000000pt" viewBox="0 0 500.000000 500.000000"
 preserveAspectRatio="xMidYMid meet">
<metadata>
Created by potrace 1.14, written by Peter Selinger 2001-2017
</metadata>
<g transform="translate(0.000000,500.000000) scale(0.100000,-0.100000)"
fill="#000000" stroke="none">
<path d="M0 2500 l0 -2500 2500 0 2500 0 0 2500 0 2500 -2500 0 -2500 0 0
-2500z m2767 1830 c24 -16 46 -30 49 -30 2 0 73 -40 157 -88 83 -48 159 -91
167 -95 8 -5 33 -19 55 -32 22 -13 54 -31 70 -40 17 -8 44 -24 60 -35 17 -11
37 -23 45 -27 36 -16 291 -166 296 -174 3 -5 13 -9 22 -9 10 0 44 -18 77 -40
33 -22 64 -40 68 -40 5 0 32 -16 61 -35 29 -19 56 -35 59 -35 3 0 60 -31 126
-70 66 -38 123 -70 128 -70 5 0 14 -5 21 -12 14 -14 110 -70 159 -93 17 -8 34
-19 38 -24 3 -6 -33 -60 -79 -120 -47 -61 -97 -129 -111 -151 -27 -42 -45 -49
-65 -25 -6 8 -21 17 -32 21 -11 3 -36 17 -55 29 -19 13 -63 38 -98 55 -35 17
-69 37 -75 45 -7 8 -21 15 -31 15 -10 0 -21 5 -25 11 -3 6 -21 18 -38 25 -17
8 -62 33 -101 54 -38 22 -82 45 -97 51 -16 6 -28 15 -28 19 0 5 -9 12 -21 15
-11 4 -57 28 -102 54 -45 25 -93 52 -107 59 -14 7 -43 23 -65 35 -92 54 -152
87 -180 102 -16 8 -48 25 -70 38 -22 13 -80 45 -130 71 -49 27 -109 61 -133
77 -24 16 -49 29 -57 29 -14 0 -84 -44 -268 -169 -53 -36 -105 -70 -114 -76
-9 -5 -97 -64 -197 -131 -100 -66 -203 -136 -231 -154 -98 -64 -161 -107 -212
-143 -29 -20 -56 -37 -60 -37 -3 0 -15 -7 -25 -17 -10 -9 -27 -21 -38 -27 -11
-6 -36 -23 -57 -37 -44 -30 -166 -112 -226 -151 -23 -14 -48 -31 -57 -38 -8
-6 -54 -36 -102 -68 -48 -31 -95 -63 -105 -70 -10 -7 -47 -32 -83 -55 -36 -24
-99 -66 -140 -94 -41 -27 -121 -81 -178 -119 -57 -38 -111 -74 -120 -81 -10
-7 -22 -9 -27 -5 -6 4 -47 56 -90 116 -44 60 -92 122 -107 139 -16 18 -28 35
-28 38 0 6 121 91 218 154 26 17 171 114 200 134 23 15 200 132 254 166 8 6
48 33 87 60 40 28 87 59 105 70 18 11 49 32 69 48 20 15 38 27 40 27 2 0 148
96 324 213 176 116 326 217 335 222 8 6 55 37 104 71 110 74 146 99 304 203
69 45 132 86 140 92 8 5 47 32 85 59 39 28 84 57 100 65 17 8 44 26 60 40 17
14 32 25 34 25 2 0 23 -13 48 -30z m1502 -1685 c100 -23 141 -35 159 -45 9 -6
28 -15 42 -20 81 -33 240 -155 240 -185 0 -8 -35 -58 -78 -112 -43 -54 -97
-124 -121 -155 -45 -60 -60 -68 -81 -43 -22 26 -199 106 -257 115 -75 13 -155
13 -187 0 -38 -14 -126 -103 -126 -127 0 -29 41 -75 82 -95 58 -27 159 -69
248 -103 82 -31 145 -57 172 -71 14 -8 31 -14 38 -14 24 0 147 -80 202 -132
67 -63 120 -142 150 -223 31 -85 31 -282 0 -368 -41 -113 -117 -215 -218 -294
-70 -54 -198 -114 -274 -128 -19 -4 -45 -13 -57 -21 -17 -11 -64 -14 -197 -14
-97 0 -177 4 -181 9 -3 5 -31 15 -63 22 -60 13 -162 44 -190 58 -9 5 -41 19
-69 32 -106 46 -233 144 -233 180 0 12 26 51 58 88 32 36 86 101 121 143 34
43 71 83 82 89 20 10 24 9 144 -46 30 -14 63 -27 209 -84 121 -47 206 -40 292
25 45 35 60 74 41 110 -25 48 -52 70 -134 109 -43 20 -86 41 -95 46 -10 5 -23
9 -30 9 -7 0 -26 7 -43 16 -16 9 -74 34 -129 56 -54 22 -127 57 -163 77 -130
72 -244 213 -281 349 -21 78 -20 230 2 307 59 199 225 354 454 424 134 41 334
47 471 16z m-2484 -5 c519 -21 584 -28 745 -81 216 -71 393 -253 469 -484 74
-225 68 -639 -13 -867 -51 -145 -171 -306 -281 -377 -66 -42 -167 -92 -220
-108 -166 -49 -226 -55 -611 -60 -337 -5 -372 -3 -387 12 -16 15 -17 93 -17
978 0 870 2 965 16 986 12 16 22 21 38 17 11 -4 129 -11 261 -16z"/>
<path d="M2017 2196 c-16 -16 -17 -60 -17 -539 0 -287 3 -532 6 -544 9 -32 28
-35 127 -17 149 27 232 75 296 168 41 59 60 133 73 283 14 157 1 320 -32 411
-56 153 -173 237 -345 249 -78 5 -93 3 -108 -11z"/>
</g>
</svg>
